<svg xmlns="http://www.w3.org/2000/svg" width="1000" height="1000" viewBox="0 0 1000 1000" fill="none"><path d="M807.816 93.1142C757.502 93.1142 714.446 71.5483 696.742 41C679.039 71.5483 635.982 93.1142 585.669 93.1142C578.424 93.1167 571.187 92.6616 564 91.7517V258.51C564 297.96 584.995 334.413 619.078 354.138L696.742 399.086L774.407 354.138C808.489 334.413 829.485 297.96 829.485 258.51V91.7517C822.298 92.6616 815.06 93.1167 807.816 93.1142Z" fill="#1B334B"></path><path d="M774.407 354.138C808.489 334.413 829.485 297.96 829.485 258.51V91.7518C822.297 92.6617 815.06 93.1168 807.816 93.1143C757.502 93.1143 714.446 71.5484 696.742 41V399.086L774.407 354.138Z" fill="#274C72"></path><path d="M696.742 399.086L774.407 354.138C808.489 334.413 829.485 297.96 829.485 258.51V91.7518C822.297 92.6617 815.06 93.1168 807.816 93.1143C757.502 93.1143 714.446 71.5484 696.742 41" stroke="white" stroke-width="1.5"></path><path d="M642.203 227.484L650.152 219.516L690.708 260.169L682.759 268.137L642.203 227.484Z" fill="#53E79C"></path><path d="M762.816 171.949L770.766 179.917L682.757 268.137L674.808 260.169L762.816 171.949Z" fill="#53E79C"></path><path d="M644.765 789.344H597.22V769.229H548.641V745.455L512.466 713.452H457.686V621.101H386.369V506.805L296.448 586.355V738.14H248.903V805.375H229.264V786.602H194.123V824.149H668.537V810.375L644.765 789.344Z" fill="#102336"></path><path d="M171.385 824.15H691.276" stroke="white" stroke-width="1.5"></path><rect x="391.867" y="644.238" width="6.49553" height="5.74633" fill="white"></rect><rect x="407.674" y="644.238" width="6.49553" height="5.74633" fill="white"></rect><rect x="423.48" y="644.238" width="6.49553" height="5.74633" fill="white"></rect><rect x="391.867" y="659.731" width="6.49553" height="5.74633" fill="white"></rect><rect x="407.674" y="659.731" width="6.49553" height="5.74633" fill="white"></rect><rect x="423.48" y="659.731" width="6.49553" height="5.74633" fill="white"></rect><rect x="391.867" y="675.224" width="6.49553" height="5.74633" fill="white"></rect><rect x="407.674" y="675.224" width="6.49553" height="5.74633" fill="white"></rect><rect x="423.48" y="675.224" width="6.49553" height="5.74633" fill="white"></rect><rect x="391.867" y="690.718" width="6.49553" height="5.74633" fill="white"></rect><rect x="407.674" y="690.718" width="6.49553" height="5.74633" fill="white"></rect><rect x="423.48" y="690.718" width="6.49553" height="5.74633" fill="white"></rect><rect x="391.867" y="706.211" width="6.49553" height="5.74633" fill="white"></rect><rect x="407.674" y="706.211" width="6.49553" height="5.74633" fill="white"></rect><rect x="423.48" y="706.211" width="6.49553" height="5.74633" fill="white"></rect><rect x="391.867" y="721.705" width="6.49553" height="5.74633" fill="white"></rect><rect x="407.674" y="721.705" width="6.49553" height="5.74633" fill="white"></rect><rect x="423.48" y="721.705" width="6.49553" height="5.74633" fill="white"></rect><rect x="391.867" y="737.198" width="6.49553" height="5.74633" fill="white"></rect><rect x="407.674" y="737.198" width="6.49553" height="5.74633" fill="white"></rect><rect x="423.48" y="737.198" width="6.49553" height="5.74633" fill="white"></rect><rect x="391.867" y="752.692" width="6.49553" height="5.74633" fill="white"></rect><rect x="407.674" y="752.692" width="6.49553" height="5.74633" fill="white"></rect><rect x="423.48" y="752.692" width="6.49553" height="5.74633" fill="white"></rect><rect x="391.867" y="768.185" width="6.49553" height="5.74633" fill="white"></rect><rect x="407.674" y="768.185" width="6.49553" height="5.74633" fill="white"></rect><rect x="423.48" y="768.185" width="6.49553" height="5.74633" fill="white"></rect><path d="M525.573 465.207C525.573 465.207 413.918 620.436 522.103 789.148L524.721 822.661L590.081 787.833L553.601 651.033L604.521 562.299L567.811 443.745" fill="#2850DE"></path><path d="M540.676 433.543L646.814 435.409L645.844 541.461V822.661H563.191L571.93 807L540.676 433.543Z" fill="#3C67FF"></path><path d="M604.615 246.648V279.191L564.301 289.1V234.181L604.615 224.273V246.648Z" fill="#1B334B"></path><path d="M581.842 257.907C582.437 257.907 582.92 257.425 582.92 256.829C582.92 256.234 582.437 255.751 581.842 255.751C581.246 255.751 580.764 256.234 580.764 256.829C580.764 257.425 581.246 257.907 581.842 257.907Z" fill="white"></path><path d="M598.398 257.907C598.994 257.907 599.476 257.425 599.476 256.829C599.476 256.234 598.994 255.751 598.398 255.751C597.803 255.751 597.32 256.234 597.32 256.829C597.32 257.425 597.803 257.907 598.398 257.907Z" fill="white"></path><path d="M593.541 263.26V246.648H601.863" stroke="white" stroke-width="1.5"></path><path d="M579.811 246.648H588.132" stroke="white" stroke-width="1.5"></path><path d="M566.957 255.159V260.928C565.462 260.928 564.029 260.335 562.973 259.278C561.916 258.221 561.322 256.788 561.322 255.294C561.322 255.121 561.33 254.95 561.345 254.781C561.661 251.282 566.957 251.647 566.957 255.159Z" fill="#1B334B"></path><path d="M566.957 260.928C565.462 260.928 564.029 260.335 562.973 259.278C561.916 258.221 561.322 256.788 561.322 255.294" stroke="white" stroke-width="1.5"></path><path d="M581.902 273.355C578.752 273.355 576.199 270.802 576.199 267.652" stroke="white" stroke-width="1.5" stroke-linecap="round" stroke-linejoin="round"></path><path d="M604.615 279.191L564.301 289.1" stroke="white" stroke-width="1.5"></path><path d="M593.54 263.273L589.9 264.167" stroke="white" stroke-width="1.5" stroke-linecap="round"></path><path d="M567.533 253.807C567.533 253.807 575.386 246.46 575.513 239.367C575.513 239.367 605.153 243.8 609.586 242.533L606.42 236.453C609.981 235.066 613.414 233.371 616.68 231.387C616.68 231.387 578.553 204.787 561.2 232.78C561.2 232.78 549.586 238.353 561.599 253.807" stroke="white" stroke-width="1.5"></path><path d="M646.812 347.375V435.408L522.102 466.06V368.015C522.102 333.25 545.835 302.977 579.596 294.679H579.596C595.786 290.7 612.907 294.384 626.027 304.67C639.148 314.956 646.812 330.703 646.812 347.375L646.812 347.375Z" fill="#53E79C"></path><path d="M626.94 405.933C609.746 425.705 572.407 423.54 536.072 412.356C543.103 426.208 562.105 436.14 584.458 436.14C612.79 436.14 635.758 420.189 635.758 400.514C635.757 398.675 635.555 396.841 635.156 395.045C632.679 398.865 629.933 402.503 626.94 405.933Z" fill="#48CE8A"></path><path d="M571.928 807L540.674 433.542" stroke="white" stroke-width="1.5"></path><path d="M639.033 319.333C639.033 319.333 664.944 362.234 626.94 405.934C588.936 449.634 452.52 386.174 446.06 355.014C439.6 323.854 444.54 326.514 451.76 332.974C458.98 339.434 462.78 337.913 462.78 337.913C462.78 337.913 463.92 325.753 467.72 329.174C471.52 332.594 472.66 339.053 472.66 339.053L564.3 363.374L587.049 325.753" stroke="white" stroke-width="1.5"></path><path d="M558.972 303.128C558.972 303.128 525.135 324.194 511.248 349.294" stroke="white" stroke-width="1.5"></path><path d="M467.846 379.573C467.846 379.573 419.333 384.02 395.013 388.073C370.693 392.127 398.053 397.193 398.053 397.193C398.053 397.193 410.719 415.433 432.506 408.34C432.506 408.34 476.924 429.62 522.102 417.967" stroke="white" stroke-width="1.5"></path><rect x="145.35" y="421" width="156.816" height="113.706" fill="#1B334B"></rect><path d="M302.166 421V534.706" stroke="white" stroke-width="1.5"></path><path d="M170.811 459.965L169.416 455.279C167.211 447.869 160.399 442.788 152.668 442.788H118L145.349 534.706H302.165L279.927 459.965H170.811Z" fill="#274C72"></path><path d="M145.35 534.706H302.165" stroke="white" stroke-width="1.5"></path><path d="M302.165 534.706L279.927 459.965H170.811" stroke="white" stroke-width="1.5"></path><path d="M209.479 178.487V286.653H292.542V208.281L262.748 178.487H209.479V178.487Z" fill="#1B334B"></path><path d="M209.479 286.653H292.542V208.281" stroke="white" stroke-width="1.5"></path><path d="M224.26 224.488H258.949" stroke="white" stroke-width="1.5"></path><path d="M224.26 231.792H258.949" stroke="white" stroke-width="1.5"></path><path d="M224.26 239.096H258.949" stroke="white" stroke-width="1.5"></path><path d="M224.26 246.4H241.604" stroke="white" stroke-width="1.5"></path><path d="M180 158.415V266.581H263.064V188.21L233.269 158.415H180V158.415Z" fill="#274C72"></path><path d="M180 266.581H263.064V188.21" stroke="white" stroke-width="1.5"></path><path d="M263.062 188.21L233.268 158.415V188.21H263.062V188.21Z" fill="#53E79C"></path><path d="M204.188 204.416H238.876" stroke="white" stroke-width="1.5"></path><path d="M204.188 211.72H238.876" stroke="white" stroke-width="1.5"></path><path d="M204.188 219.024H238.876" stroke="white" stroke-width="1.5"></path><path d="M204.188 226.328H221.532" stroke="white" stroke-width="1.5"></path></svg>