<svg xmlns="http://www.w3.org/2000/svg" width="560" height="562" viewBox="0 0 560 562" fill="none"><path d="M265.975 204.923C265.975 204.923 334.864 395.578 283.401 420.975C231.938 446.373 62.1779 341.442 62.1779 341.442L44.8008 345.452L80.8916 277.28L195.848 308.693L200.043 213.119" fill="#3C67FF"></path><path d="M198.186 255.398L195.847 308.692L141.632 293.878C131.142 314.965 124.754 342.89 124.754 373.522C124.754 374.524 124.761 375.523 124.775 376.518C163.965 396.769 213.696 419.17 249.812 423.993C253.986 407.496 256.065 390.539 255.998 373.522C255.998 312.611 230.746 262.4 198.186 255.398Z" fill="#2850DE"></path><path d="M249.63 203.282L171.374 197.921L157.145 203.717L150.457 545.475H223.143L215.457 531.703L249.63 203.282Z" fill="#3C67FF"></path><path d="M181.643 38.9265V51.2789C181.643 60.8302 188.163 69.1476 197.438 71.4273L217.095 76.2586V27.9632L200.751 23.946C196.148 22.8148 191.281 23.862 187.551 26.7862C183.821 29.7104 181.643 34.1869 181.643 38.9265V38.9265Z" fill="#1B334B"></path><path d="M181.643 51.2788C181.643 60.8302 188.163 69.1475 197.438 71.4272L217.095 76.2585" stroke="white" stroke-width="1.2" stroke-linecap="round" stroke-linejoin="round"></path><path d="M201.671 48.8275C202.194 48.8275 202.618 48.4031 202.618 47.8796C202.618 47.356 202.194 46.9316 201.671 46.9316C201.147 46.9316 200.723 47.356 200.723 47.8796C200.723 48.4031 201.147 48.8275 201.671 48.8275Z" fill="white"></path><path d="M187.11 48.8275C187.634 48.8275 188.058 48.4031 188.058 47.8796C188.058 47.356 187.634 46.9316 187.11 46.9316C186.587 46.9316 186.162 47.356 186.162 47.8796C186.162 48.4031 186.587 48.8275 187.11 48.8275Z" fill="white"></path><path d="M191.381 53.5345V38.9258H184.062" stroke="white" stroke-width="1.2" stroke-linecap="round" stroke-linejoin="round"></path><path d="M203.455 38.9265H196.137" stroke="white" stroke-width="1.2" stroke-linecap="round" stroke-linejoin="round"></path><path d="M214.76 46.411V51.484C217.496 51.484 219.715 49.2656 219.715 46.5291C219.715 46.3771 219.708 46.2268 219.694 46.0781C219.417 43.0013 214.76 43.3217 214.76 46.411Z" fill="#1B334B"></path><path d="M214.76 51.4841C217.496 51.4841 219.715 49.2658 219.715 46.5293" stroke="white" stroke-width="1.2" stroke-linecap="round" stroke-linejoin="round"></path><path d="M195.383 60.2412C195.998 60.8565 196.833 61.2022 197.703 61.2022C198.573 61.2022 199.407 60.8565 200.023 60.2412" stroke="white" stroke-width="1.2" stroke-linecap="round" stroke-linejoin="round"></path><path d="M191.381 53.5464L194.582 54.3331" stroke="white" stroke-width="1.2" stroke-linecap="round" stroke-linejoin="round"></path><path d="M265.976 127.506V204.923L156.305 231.878V145.657C156.305 115.085 177.176 88.4618 206.865 81.1648H206.865C221.103 77.6654 236.159 80.9051 247.698 89.9509C259.236 98.9968 265.976 112.845 265.976 127.506V127.506Z" fill="#53E79C"></path><path d="M223.142 545.475L215.457 531.703L249.63 203.282" stroke="white" stroke-width="1.2" stroke-linecap="round" stroke-linejoin="round"></path><path d="M187.11 70.3148C187.11 70.3148 126.339 68.5326 160.871 35.5607C195.402 2.58885 207.21 18.1836 207.21 18.1836C207.21 18.1836 229.265 28.6728 229.265 46.9318C229.265 65.1908 217.238 70.3148 217.238 70.3148" stroke="white" stroke-width="1.2" stroke-linecap="round" stroke-linejoin="round"></path><path d="M181.643 47.7051C181.643 47.7051 199.135 41.7987 200.722 31.7734C200.722 31.7734 203.152 44.2493 214.76 45.1404" stroke="white" stroke-width="1.2" stroke-linecap="round" stroke-linejoin="round"></path><path d="M244.82 87.8672C244.82 87.8672 320.16 142.274 312.808 174.355C305.456 206.435 196.418 203.762 187.11 189.727C177.802 175.691 180.892 179.033 180.892 179.033C180.892 179.033 156.949 178.81 162.296 172.795C167.643 166.78 255.999 151.631 255.999 151.631L249.629 143.769" stroke="white" stroke-width="1.2" stroke-linecap="round" stroke-linejoin="round"></path><path d="M194.583 85.495C194.583 85.495 145.921 105.314 140.574 164.129C140.574 164.129 118.843 87.0298 91.5859 79.7628C68.4401 73.5919 70.669 77.2353 66.5229 76.2583C60.3279 74.7984 81.2265 87.8671 81.2265 87.8671C81.2265 87.8671 74.2089 106.183 91.0679 109.073C91.0679 109.073 65.2982 219.354 156.305 231.878" stroke="white" stroke-width="1.2" stroke-linecap="round" stroke-linejoin="round"></path><path d="M420.102 44.3672C379.987 44.3672 347.467 76.8872 347.467 117.003C347.467 157.118 379.987 189.638 420.102 189.638C460.218 189.638 492.738 157.118 492.738 117.003H420.102V44.3672Z" fill="#1B334B"></path><path d="M347.467 117.002C347.467 157.118 379.987 189.638 420.102 189.638C460.218 189.638 492.738 157.118 492.738 117.002" stroke="white" stroke-width="1.2"></path><path d="M492.737 117.002H420.102L478.561 160.113C487.79 147.637 492.761 132.522 492.737 117.002Z" fill="#3C67FF"></path><path d="M420.102 22.3999V117.003H514.704C514.704 91.9124 504.737 67.8498 486.996 50.1084C469.254 32.3669 445.192 22.3999 420.102 22.3999Z" fill="#53E79C"></path><path d="M420.102 117.002H514.704" stroke="white" stroke-width="1.2"></path><rect x="468.92" y="262.042" width="33.781" height="33.781" transform="rotate(180 468.92 262.042)" fill="#53E79C"></rect><path d="M478.182 230.808L452.029 204.655L425.877 230.808H478.182Z" fill="#53E79C"></path><rect x="468.92" y="345.521" width="33.781" height="33.781" transform="rotate(180 468.92 345.521)" fill="#1B334B"></rect><path d="M478.182 314.285L452.029 288.133L425.877 314.285H478.182Z" fill="#1B334B"></path></svg>