<svg xmlns="http://www.w3.org/2000/svg" width="654" height="552" viewBox="0 0 654 552" fill="none"><path d="M631.054 53.7809C580.097 53.7809 536.49 31.939 518.56 1C500.629 31.9391 457.022 53.7809 406.065 53.7809C398.728 53.7833 391.398 53.3225 384.119 52.4009V221.292C384.119 261.247 405.383 298.166 439.901 318.143L518.56 363.666L597.218 318.143C631.736 298.166 653 261.247 653 221.292V52.4009C645.721 53.3225 638.391 53.7833 631.054 53.7809Z" fill="#1B334B"></path><path d="M597.217 318.143C631.735 298.166 652.999 261.247 652.999 221.292V52.401C645.72 53.3225 638.39 53.7834 631.053 53.7809C580.096 53.7809 536.489 31.9391 518.559 1V363.666L597.217 318.143Z" fill="#274C72"></path><path d="M518.559 363.666L597.217 318.143C631.735 298.166 652.999 261.247 652.999 221.292V52.401C645.72 53.3225 638.39 53.7834 631.053 53.7809C580.096 53.7809 536.489 31.9391 518.559 1" stroke="white" stroke-width="1.5"></path><path d="M463.322 189.869L471.373 181.799L512.447 222.972L504.397 231.043L463.322 189.869Z" fill="#53E79C"></path><path d="M585.479 133.624L593.529 141.694L504.396 231.043L496.345 222.972L585.479 133.624Z" fill="#53E79C"></path><path d="M41.4852 4.07867C22.6252 4.04507 7.30897 19.3437 7.27539 38.2492L75.5736 38.371C75.6071 19.4655 60.3452 4.1123 41.4852 4.07867Z" fill="white"></path><path d="M112.625 18.9209C101.872 18.9018 93.1402 27.624 93.1211 38.4026L132.06 38.472C132.069 33.2959 130.027 28.3282 126.382 24.6617C122.737 20.9951 117.789 18.9301 112.625 18.9209Z" fill="white"></path><path d="M75.637 2.57525C55.9148 2.54013 39.8984 18.5382 39.8633 38.308L111.284 38.4353C111.319 18.6655 95.3592 2.61042 75.637 2.57525Z" fill="white"></path><path d="M1 38.2378L141.375 38.488" stroke="white" stroke-width="1.5"></path><g opacity="0.5"><path d="M117.797 232.247C133.43 232.219 146.125 244.9 146.153 260.57L89.5423 260.671C89.5145 245.001 102.165 232.275 117.797 232.247Z" fill="white"></path><path d="M58.8317 244.549C67.7443 244.533 74.9822 251.763 74.9981 260.697L42.7227 260.754C42.7151 256.464 44.408 252.346 47.429 249.307C50.45 246.268 54.5517 244.557 58.8317 244.549Z" fill="white"></path><path d="M89.4897 231C105.837 230.971 119.113 244.231 119.142 260.618L59.943 260.724C59.914 244.337 73.1425 231.029 89.4897 231Z" fill="white"></path></g><path d="M151.354 260.561L35 260.768" stroke="white" stroke-width="1.5"></path><path d="M408.241 520.726H367.54V503.464H325.954V485.063L286.5 457.601H248.092V376.353H187.04V278.272L110.062 346.536V476.786H69.3614V534.482H52.5498V518.372H22.4668V550.593H428.591V538.773L408.241 520.726Z" fill="#1B334B"></path><path d="M3 550.593H448.056" stroke="white" stroke-width="1.5"></path><rect x="191.746" y="396.207" width="5.56087" height="4.931" fill="white"></rect><rect x="205.277" y="396.207" width="5.56082" height="4.931" fill="white"></rect><rect x="218.807" y="396.207" width="5.56084" height="4.931" fill="white"></rect><rect x="191.746" y="409.501" width="5.56087" height="4.93109" fill="white"></rect><rect x="205.277" y="409.501" width="5.56082" height="4.93109" fill="white"></rect><rect x="218.807" y="409.501" width="5.56084" height="4.93109" fill="white"></rect><rect x="191.746" y="422.797" width="5.56087" height="4.93106" fill="white"></rect><rect x="205.277" y="422.797" width="5.56082" height="4.93106" fill="white"></rect><rect x="218.807" y="422.797" width="5.56084" height="4.93106" fill="white"></rect><rect x="191.746" y="436.092" width="5.56087" height="4.93109" fill="white"></rect><rect x="205.277" y="436.092" width="5.56082" height="4.93109" fill="white"></rect><rect x="218.807" y="436.092" width="5.56084" height="4.93109" fill="white"></rect><rect x="191.746" y="449.388" width="5.56087" height="4.93106" fill="white"></rect><rect x="205.277" y="449.388" width="5.56082" height="4.93106" fill="white"></rect><rect x="218.807" y="449.388" width="5.56084" height="4.93106" fill="white"></rect><rect x="191.746" y="462.683" width="5.56087" height="4.93106" fill="white"></rect><rect x="205.277" y="462.683" width="5.56082" height="4.93106" fill="white"></rect><rect x="218.807" y="462.683" width="5.56084" height="4.93106" fill="white"></rect><rect x="191.746" y="475.978" width="5.56087" height="4.93112" fill="white"></rect><rect x="205.277" y="475.978" width="5.56082" height="4.93112" fill="white"></rect><rect x="218.807" y="475.978" width="5.56084" height="4.93112" fill="white"></rect><rect x="191.746" y="489.273" width="5.56087" height="4.93106" fill="white"></rect><rect x="205.277" y="489.273" width="5.56082" height="4.93106" fill="white"></rect><rect x="218.807" y="489.273" width="5.56084" height="4.93106" fill="white"></rect><rect x="191.746" y="502.569" width="5.56087" height="4.93109" fill="white"></rect><rect x="205.277" y="502.569" width="5.56082" height="4.93109" fill="white"></rect><rect x="218.807" y="502.569" width="5.56084" height="4.93109" fill="white"></rect><path d="M557.597 408.384C553.039 404.185 549.569 398.937 547.489 393.092C542.322 378.783 528.767 369.25 513.586 369.25C498.405 369.25 484.85 378.783 479.683 393.092C477.602 398.937 474.133 404.185 469.574 408.384C457.7 419.238 454.426 436.66 461.546 451.102C468.666 465.544 484.462 473.518 500.276 470.655C509.078 469.062 518.094 469.062 526.896 470.655C542.715 473.533 558.524 465.561 565.647 451.113C572.771 436.664 569.487 419.233 557.597 408.384H557.597Z" fill="#3C67FF"></path><path d="M500.277 470.655C509.079 469.062 518.095 469.062 526.897 470.655C537.41 472.558 548.225 469.691 556.425 462.828C564.626 455.964 569.371 445.81 569.38 435.101" stroke="white" stroke-width="1.5"></path><path d="M441.393 550.593H585.779" stroke="white" stroke-width="1.5"></path><path d="M513.586 445.583V550.593" stroke="white" stroke-width="1.5"></path><path d="M528.878 430.256L513.586 445.584L498.295 430.256" stroke="white" stroke-width="1.5"></path><path d="M453.197 471.083C450.648 468.735 448.708 465.801 447.545 462.533C444.656 454.533 437.077 449.203 428.59 449.203C420.102 449.203 412.523 454.533 409.634 462.533C408.471 465.801 406.531 468.735 403.982 471.083C397.343 477.152 395.513 486.892 399.494 494.967C403.475 503.041 412.306 507.5 421.148 505.899C426.069 505.008 431.11 505.008 436.031 505.899C444.876 507.508 453.715 503.051 457.697 494.973C461.68 486.894 459.844 477.149 453.197 471.083Z" fill="#53E79C"></path><path d="M421.148 505.899C426.07 505.008 431.11 505.008 436.032 505.899C441.91 506.963 447.956 505.36 452.541 501.523C457.126 497.685 459.779 492.008 459.784 486.02" stroke="white" stroke-width="1.5"></path><path d="M428.59 491.881V550.593" stroke="white" stroke-width="1.5"></path><path d="M437.141 483.311L428.591 491.881L420.041 483.311" stroke="white" stroke-width="1.5"></path><path d="M259.239 216.15C259.239 216.15 170.128 265.732 191.684 333.338C213.239 400.944 276.035 442.096 276.035 442.096V465.923L321.232 408.47L280.276 329.253L305.658 315.325L293.334 216.15" fill="#3C67FF"></path><path d="M276.035 214.546L366.43 209.307V307.304V549H295.387L302.899 535.539L276.035 214.546Z" fill="#3C67FF"></path><path d="M293.259 53.9078V81.8785L327.91 90.3954V43.1921L293.259 34.6753V53.9078Z" fill="#1B334B"></path><path d="M312.833 63.5849C312.322 63.5849 311.907 63.1701 311.907 62.6584C311.907 62.1467 312.322 61.7319 312.833 61.7319C313.345 61.7319 313.76 62.1467 313.76 62.6584C313.76 63.1701 313.345 63.5849 312.833 63.5849Z" fill="white"></path><path d="M298.603 63.5849C298.091 63.5849 297.676 63.1701 297.676 62.6584C297.676 62.1467 298.091 61.7319 298.603 61.7319C299.114 61.7319 299.529 62.1467 299.529 62.6584C299.529 63.1701 299.114 63.5849 298.603 63.5849Z" fill="white"></path><path d="M302.779 68.1854V53.9077H295.626" stroke="white" stroke-width="1.5" stroke-linecap="round" stroke-linejoin="round"></path><path d="M314.58 53.9077H307.427" stroke="white" stroke-width="1.5" stroke-linecap="round" stroke-linejoin="round"></path><path d="M325.628 61.2234V66.1816C328.303 66.1816 330.471 64.0135 330.471 61.3389C330.471 61.1903 330.464 61.0434 330.451 60.8981C330.18 57.8909 325.628 58.204 325.628 61.2234Z" fill="#1F658F"></path><path d="M325.628 66.1816C328.303 66.1816 330.471 64.0135 330.471 61.3389" stroke="white" stroke-width="1.5" stroke-linecap="round" stroke-linejoin="round"></path><path d="M305.907 71.7052C307.207 71.7052 308.454 71.1888 309.373 70.2696C310.292 69.3504 310.809 68.1037 310.809 66.8037" stroke="white" stroke-width="1.5" stroke-linecap="round" stroke-linejoin="round"></path><path d="M293.259 81.8789L327.91 90.3955" stroke="white" stroke-width="1.5" stroke-linecap="round" stroke-linejoin="round"></path><path d="M302.778 68.1968L305.906 68.9657" stroke="white" stroke-width="1.5" stroke-linecap="round" stroke-linejoin="round"></path><path d="M323.226 59.9892L321.648 48.6665L287.244 43.5495L290.946 39.0313L286.156 34.6757L291.817 31.7913L286.428 27.4364C286.428 27.4364 318.24 24.2791 328.888 34.9486C336.437 42.5131 340.488 57.6166 327.911 69.2546" stroke="white" stroke-width="1.5" stroke-linecap="round" stroke-linejoin="round"></path><path d="M259.239 140.484V216.15L366.43 242.496V158.225C366.43 128.344 346.03 102.323 317.013 95.1912H317.013C303.097 91.7709 288.381 94.9374 277.104 103.779C265.826 112.62 259.239 126.154 259.239 140.484V140.484Z" fill="#53E79C"></path><path d="M303.945 112.017L291.033 179.473L295.788 191.948L307.742 181.674L306.943 112.511L311.149 106.457H301.091L303.945 112.017Z" fill="white"></path><path d="M302.898 535.539L276.035 214.546" stroke="white" stroke-width="1.5" stroke-linecap="round" stroke-linejoin="round"></path><path d="M328.05 98.9829C328.05 98.9829 389.272 134.784 402.989 186.39C416.707 237.995 401.03 285.681 348.771 299.399L330.471 277.704L352.442 244.083C360.766 231.345 359.187 214.547 348.635 203.584L317.416 171.148" stroke="white" stroke-width="1.5" stroke-linecap="round" stroke-linejoin="round"></path><path d="M348.771 299.399L315.13 260.205" stroke="white" stroke-width="1.5" stroke-linecap="round" stroke-linejoin="round"></path><path d="M278.051 103.592C278.051 103.592 238.545 129.312 213.722 195.071C213.722 195.071 208.166 142.387 201.5 142.5C191.996 143.48 192 143 192 143C192 143 167 140.5 168.975 144.5C173.33 155.387 186.939 158.871 186.939 158.871C186.939 158.871 155.365 234.858 210.672 257.642" stroke="white" stroke-width="1.5" stroke-linecap="round" stroke-linejoin="round"></path><path d="M221.54 141.901H144.696L111 64" stroke="white" stroke-width="1.5" stroke-linecap="round" stroke-linejoin="round"></path><path d="M366.43 292.837V315.076C360.791 310.35 355.966 304.731 352.147 298.443C357.059 296.986 361.838 295.111 366.43 292.837Z" fill="#2850DE"></path></svg>