<svg xmlns="http://www.w3.org/2000/svg" width="1097" height="1086" viewBox="0 0 1097 1086" fill="none"><rect x="907.113" y="555.072" width="188.585" height="136.621" fill="#0B1B2B"></rect><path d="M1095.7 555.072V691.693" stroke="white" stroke-width="1.5"></path><path d="M937.734 601.89L936.057 596.259C933.406 587.356 925.213 581.251 915.916 581.251H874.225L907.115 691.693H1095.7L1068.96 601.89H937.734Z" fill="#274C72"></path><path d="M907.113 691.693H1095.7" stroke="white" stroke-width="1.5"></path><path d="M1095.7 691.693L1068.96 601.89H937.734" stroke="white" stroke-width="1.5"></path><path d="M42.1777 29.6936V184.322H161.026V72.2865L118.397 29.6936H42.1777V29.6936Z" fill="#0B1B2B"></path><path d="M42.1777 184.322H161.026V72.2864" stroke="white" stroke-width="1.5"></path><path d="M63.3281 95.4546H112.961" stroke="white" stroke-width="1.5"></path><path d="M63.3281 105.896H112.961" stroke="white" stroke-width="1.5"></path><path d="M63.3281 116.338H112.961" stroke="white" stroke-width="1.5"></path><path d="M63.3281 126.779H88.1447" stroke="white" stroke-width="1.5"></path><path d="M0 1V155.629H118.849V43.5929L76.2182 1H0V1Z" fill="#274C72"></path><path d="M0 155.629H118.849V43.593" stroke="white" stroke-width="1.5"></path><path d="M118.847 43.5929L76.2168 1V43.5929H118.847V43.5929Z" fill="#53E79C"></path><path d="M34.6074 66.761H84.2407" stroke="white" stroke-width="1.5"></path><path d="M34.6074 77.2029H84.2407" stroke="white" stroke-width="1.5"></path><path d="M34.6074 87.6441H84.2407" stroke="white" stroke-width="1.5"></path><path d="M34.6074 98.0862H59.424" stroke="white" stroke-width="1.5"></path><path d="M840.889 903.742C791.949 587.95 505.396 450.958 505.396 450.958L386.032 512.567C381.831 512.567 408.405 625.692 408.405 625.692L585.222 703.948L748.955 956.938L873.516 913.929L840.889 903.742Z" fill="#3C67FF"></path><path d="M595.172 508.303C527.426 475.443 446.81 484.409 387.955 531.349C393.797 563.506 408.404 625.691 408.404 625.691L585.221 703.947L655.903 813.162C714.259 747.386 721.38 650.741 673.293 577.136C648.963 552.324 622.854 529.318 595.172 508.303Z" fill="#2850DE"></path><path d="M686.767 635.017C681.021 473.518 488.255 447.663 488.255 447.663L265.169 392.881C265.169 392.881 228.377 636.375 509.791 640.45L376.712 903.741L499.024 956.937L488.255 920.04C488.255 920.04 690.199 731.457 686.767 635.017Z" fill="#3C67FF"></path><path d="M265.169 392.88C265.169 392.88 228.377 636.375 509.791 640.45L376.711 903.741" stroke="white" stroke-width="1.5" stroke-linecap="round" stroke-linejoin="round"></path><path d="M265.168 235.544V392.882L488.254 447.664V272.433C488.254 210.299 445.798 156.193 385.407 141.363H385.406C356.445 134.251 325.819 140.835 302.348 159.219C278.877 177.603 265.168 205.747 265.168 235.544V235.544Z" fill="#53E79C"></path><path d="M330.965 55.5184V80.6228C330.965 100.034 344.229 116.938 363.096 121.571L403.08 131.39V33.2372L369.834 25.0729C360.471 22.7738 350.571 24.9023 342.984 30.8453C335.397 36.7882 330.965 45.886 330.965 55.5183V55.5184Z" fill="#1B334B"></path><path d="M330.965 80.6216C330.965 100.033 344.229 116.937 363.096 121.57L403.08 131.389" stroke="white" stroke-width="1.5" stroke-linecap="round" stroke-linejoin="round"></path><path d="M371.698 75.6416C372.763 75.6416 373.626 74.7789 373.626 73.7148C373.626 72.6507 372.763 71.7881 371.698 71.7881C370.633 71.7881 369.77 72.6507 369.77 73.7148C369.77 74.7789 370.633 75.6416 371.698 75.6416Z" fill="white"></path><path d="M342.084 75.6416C343.149 75.6416 344.013 74.7789 344.013 73.7148C344.013 72.6507 343.149 71.7881 342.084 71.7881C341.02 71.7881 340.156 72.6507 340.156 73.7148C340.156 74.7789 341.02 75.6416 342.084 75.6416Z" fill="white"></path><path d="M350.773 85.2077V55.519H335.887" stroke="white" stroke-width="1.5" stroke-linecap="round" stroke-linejoin="round"></path><path d="M375.33 55.5191H360.443" stroke="white" stroke-width="1.5" stroke-linecap="round" stroke-linejoin="round"></path><path d="M398.328 70.729V81.039C403.894 81.039 408.407 76.5306 408.407 70.9691C408.407 70.6601 408.393 70.3546 408.366 70.0525C407.801 63.7994 398.328 64.4505 398.328 70.729Z" fill="#274C72"></path><path d="M398.328 81.0389C403.894 81.0389 408.407 76.5305 408.407 70.969" stroke="white" stroke-width="1.5" stroke-linecap="round" stroke-linejoin="round"></path><path d="M358.914 99.0635C360.166 100.314 361.863 101.017 363.633 101.017C365.403 101.017 367.101 100.314 368.352 99.0635" stroke="white" stroke-width="1.5" stroke-linecap="round" stroke-linejoin="round"></path><path d="M350.771 85.2317L357.283 86.8308" stroke="white" stroke-width="1.5" stroke-linecap="round" stroke-linejoin="round"></path><path d="M329.434 66.7888C329.434 66.7888 347.368 57.4582 350.405 41.6769C350.443 41.4351 350.643 41.2511 350.887 41.2325C351.131 41.2139 351.357 41.3654 351.431 41.5987C353.633 48.4392 362.752 66.4287 398.326 70.7298" stroke="white" stroke-width="1.5" stroke-linecap="round" stroke-linejoin="round"></path><path d="M330.963 76.0051C330.963 76.0051 313.122 68.1473 316.294 47.3198C319.466 26.4924 380.644 -30.2582 421.883 24.1514C463.121 78.561 531.323 181.34 531.323 181.34L486.319 188.252C465.482 191.452 444.285 185.401 428.285 171.685C412.285 157.968 403.079 137.955 403.079 116.892V88.676" stroke="white" stroke-width="1.5" stroke-linecap="round" stroke-linejoin="round"></path><path d="M914.26 355.053H559.293L583.64 142.293H938.607L914.26 355.053Z" fill="#274C72"></path><path fill-rule="evenodd" clip-rule="evenodd" d="M900.166 336.905H545.199L569.547 124.145H924.514L900.166 336.905Z" stroke="white" stroke-width="1.5" stroke-linecap="round" stroke-linejoin="round"></path><path d="M746.976 417.566L756.207 336.904H699.436L690.205 417.566H746.976Z" fill="white"></path><path d="M443.896 417.568H929.643" stroke="white" stroke-width="1.5" stroke-linecap="round" stroke-linejoin="round"></path><path d="M295.284 164.898C295.284 164.898 203.328 240.348 180.217 362.296C157.105 484.243 340.361 454.941 427.648 419.044" stroke="white" stroke-width="1.5" stroke-linecap="round" stroke-linejoin="round"></path><path d="M277.426 355.053C277.426 355.053 484.751 318.437 499.026 409.151" stroke="white" stroke-width="1.5" stroke-linecap="round" stroke-linejoin="round"></path><path d="M434.359 164.898C434.359 164.898 499.424 231.979 516.583 355.052C516.583 355.052 582.579 357.32 585.218 409.15" stroke="white" stroke-width="1.5" stroke-linecap="round" stroke-linejoin="round"></path><path d="M256.901 204.652C256.901 204.652 227.33 143.307 202.859 196.281C178.388 249.255 71.4591 598.342 184.298 656.749C297.138 715.157 462.144 683.077 462.144 683.077" stroke="white" stroke-width="1.5" stroke-linecap="round" stroke-linejoin="round"></path><path d="M337.444 691.869V1085H202.859" stroke="white" stroke-width="1.5" stroke-linecap="round" stroke-linejoin="round"></path></svg>