<svg xmlns="http://www.w3.org/2000/svg" width="1223" height="1019" viewBox="0 0 1223 1019" fill="none"><path d="M655.604 968.107H589.958V940.334H522.884V907.509L472.937 863.321H397.301V735.811H298.832V578L174.676 687.836V897.409H109.03V990.242H81.915V964.321H33.3945V1016.16H688.427V997.146L655.604 968.107Z" fill="#1B334B"></path><path d="M2 1016.16H719.824" stroke="white" stroke-width="1.5"></path><rect x="306.424" y="767.756" width="8.9685" height="7.93407" fill="white"></rect><rect x="328.248" y="767.756" width="8.9685" height="7.93407" fill="white"></rect><rect x="350.072" y="767.756" width="8.9685" height="7.93407" fill="white"></rect><rect x="306.424" y="789.148" width="8.9685" height="7.93407" fill="white"></rect><rect x="328.248" y="789.148" width="8.9685" height="7.93407" fill="white"></rect><rect x="350.072" y="789.148" width="8.9685" height="7.93407" fill="white"></rect><rect x="306.424" y="810.54" width="8.9685" height="7.93407" fill="white"></rect><rect x="328.248" y="810.54" width="8.9685" height="7.93407" fill="white"></rect><rect x="350.072" y="810.54" width="8.9685" height="7.93407" fill="white"></rect><rect x="306.424" y="831.932" width="8.9685" height="7.93407" fill="white"></rect><rect x="328.248" y="831.932" width="8.9685" height="7.93407" fill="white"></rect><rect x="350.072" y="831.932" width="8.9685" height="7.93407" fill="white"></rect><rect x="306.424" y="853.325" width="8.9685" height="7.93407" fill="white"></rect><rect x="328.248" y="853.325" width="8.9685" height="7.93407" fill="white"></rect><rect x="350.072" y="853.325" width="8.9685" height="7.93407" fill="white"></rect><rect x="306.424" y="874.717" width="8.9685" height="7.93407" fill="white"></rect><rect x="328.248" y="874.717" width="8.9685" height="7.93407" fill="white"></rect><rect x="350.072" y="874.717" width="8.9685" height="7.93407" fill="white"></rect><rect x="306.424" y="896.109" width="8.9685" height="7.93407" fill="white"></rect><rect x="328.248" y="896.109" width="8.9685" height="7.93407" fill="white"></rect><rect x="350.072" y="896.109" width="8.9685" height="7.93407" fill="white"></rect><rect x="306.424" y="917.501" width="8.9685" height="7.93407" fill="white"></rect><rect x="328.248" y="917.501" width="8.9685" height="7.93407" fill="white"></rect><rect x="350.072" y="917.501" width="8.9685" height="7.93407" fill="white"></rect><rect x="306.424" y="938.893" width="8.9685" height="7.93407" fill="white"></rect><rect x="328.248" y="938.893" width="8.9685" height="7.93407" fill="white"></rect><rect x="350.072" y="938.893" width="8.9685" height="7.93407" fill="white"></rect><path d="M637.488 368.426L529.823 334.165L526.404 1017.29H650.863L637.488 987.395C697.676 771.562 637.488 368.426 637.488 368.426Z" fill="#3C67FF"></path><path d="M606.41 788.388C606.41 628.39 573.928 498.686 533.859 498.686C532.216 498.695 530.581 498.918 528.996 499.348L526.404 1017.29H578.329C595.414 964.285 606.41 881.469 606.41 788.388Z" fill="#2850DE"></path><path d="M601.994 376.778C601.994 376.778 627.7 796.352 555.095 995.005L570.261 1017.29H441.124C441.124 1017.29 428.531 503.51 428.531 388.323L601.994 376.778Z" fill="#3C67FF"></path><path d="M574.57 52.149V106.676L507.021 123.278V31.2599L574.57 14.6583V52.149Z" fill="#1B334B"></path><path d="M529.822 90.6867C529.822 90.6867 546.271 85.2747 551.683 93.5519C551.683 93.5519 558.546 85.8519 567.388 92.0665" stroke="white" stroke-width="1.5" stroke-linecap="round" stroke-linejoin="round"></path><path d="M536.415 71.014C537.413 71.014 538.222 70.2054 538.222 69.208C538.222 68.2105 537.413 67.4019 536.415 67.4019C535.418 67.4019 534.609 68.2105 534.609 69.208C534.609 70.2054 535.418 71.014 536.415 71.014Z" fill="white"></path><path d="M564.156 71.014C565.153 71.014 565.962 70.2054 565.962 69.208C565.962 68.2105 565.153 67.4019 564.156 67.4019C563.158 67.4019 562.35 68.2105 562.35 69.208C562.35 70.2054 563.158 71.014 564.156 71.014Z" fill="white"></path><path d="M556.018 79.9819V52.1488H569.961" stroke="white" stroke-width="1.5" stroke-linecap="round" stroke-linejoin="round"></path><path d="M533.01 52.1489H546.954" stroke="white" stroke-width="1.5" stroke-linecap="round" stroke-linejoin="round"></path><path d="M511.474 66.41V76.0757C506.26 76.0757 502.033 71.849 502.033 66.6351C502.033 66.3455 502.046 66.059 502.072 65.7758C502.601 59.9135 511.474 60.5239 511.474 66.41Z" fill="#1B334B"></path><path d="M511.474 76.0755C506.26 76.0755 502.033 71.8489 502.033 66.635" stroke="white" stroke-width="1.5" stroke-linecap="round" stroke-linejoin="round"></path><path d="M547.809 96.8437C544.86 96.8437 542.469 94.4527 542.469 91.5033" stroke="white" stroke-width="1.5" stroke-linecap="round" stroke-linejoin="round"></path><path d="M526.405 118.515L507.021 123.279" stroke="white" stroke-width="1.5" stroke-linecap="round" stroke-linejoin="round"></path><path d="M556.018 80.0049L549.92 81.5038" stroke="white" stroke-width="1.5" stroke-linecap="round" stroke-linejoin="round"></path><path d="M637.49 220.922V368.426L428.531 419.784V255.505C428.531 197.255 468.298 146.53 524.865 132.627H524.866C551.993 125.959 580.68 132.132 602.664 149.367C624.648 166.603 637.49 192.987 637.49 220.922V220.922Z" fill="#53E79C"></path><path d="M514.791 69.2082C514.791 69.2082 504.604 102.653 528.374 120.056C550.506 136.26 585.391 126.773 577.137 88.8716C575.423 80.9621 574.562 72.8916 574.57 64.7986V62.5403" stroke="white" stroke-width="1.5" stroke-linecap="round" stroke-linejoin="round"></path><path d="M506.753 61.6812C506.753 61.6812 484.282 20.5291 518.884 13.1145C518.884 13.1145 532.954 -4.46083 552.969 4.05223C572.983 12.5653 582.595 6.58972 582.869 14.6579C583.144 22.7261 584.128 36.1822 574.573 43.0476" stroke="white" stroke-width="1.5" stroke-linecap="round" stroke-linejoin="round"></path><path d="M520.732 61.6749L526.404 38.5575C526.404 38.5575 567.706 39.1942 574.569 27.9457" stroke="white" stroke-width="1.5" stroke-linecap="round" stroke-linejoin="round"></path><path d="M601.993 376.778C601.993 376.778 627.699 796.352 555.094 995.005L570.26 1017.29" stroke="white" stroke-width="1.5" stroke-linecap="round" stroke-linejoin="round"></path><path d="M471.353 160.613C471.353 160.613 436.263 299.184 478.71 350.97C521.158 402.755 719.811 372.193 777.539 316.163C777.539 316.163 797.914 311.069 802.159 300.882C802.159 300.882 821.684 315.314 820.835 305.976C819.986 296.637 813.195 267.536 778.388 274.87C743.581 282.205 574.57 285.601 574.57 285.601L578.375 212.592" stroke="white" stroke-width="1.5" stroke-linecap="round" stroke-linejoin="round"></path><path d="M627.855 180.072C627.855 180.072 653.386 229.556 650.094 283.471" stroke="white" stroke-width="1.5" stroke-linecap="round" stroke-linejoin="round"></path><path d="M641.814 400.411C641.814 400.411 709.832 427.425 738.594 341.656" stroke="white" stroke-width="1.5" stroke-linecap="round" stroke-linejoin="round"></path><path d="M673.168 282.605C673.168 282.605 745.239 245.381 756.314 260.981L767.389 276.582" stroke="white" stroke-width="1.5" stroke-linecap="round" stroke-linejoin="round"></path><path d="M1001.35 1.72437H882.929V297.874L733.798 447.005V1017.29H673.168" stroke="white" stroke-width="1.5" stroke-linecap="round" stroke-linejoin="round"></path><path d="M1192.84 473.433C1125.81 473.433 1068.44 444.7 1044.86 404C1021.27 444.7 963.904 473.433 896.87 473.433C887.218 473.436 877.576 472.83 868 471.618V693.794C868 746.353 895.973 794.92 941.381 821.2L1044.86 881.086L1148.33 821.2C1193.74 794.92 1221.71 746.353 1221.71 693.794V471.618C1212.14 472.83 1202.49 473.436 1192.84 473.433Z" fill="#1B334B"></path><path d="M1148.33 821.2C1193.74 794.921 1221.71 746.353 1221.71 693.794V471.618C1212.14 472.83 1202.49 473.436 1192.84 473.433C1125.81 473.433 1068.44 444.7 1044.86 404V881.086L1148.33 821.2Z" fill="#274C72"></path><path d="M1044.86 881.086L1148.33 821.2C1193.74 794.921 1221.71 746.353 1221.71 693.794V471.618C1212.14 472.83 1202.49 473.436 1192.84 473.433C1125.81 473.433 1068.44 444.7 1044.86 404" stroke="white" stroke-width="1.5"></path><path d="M972.191 652.457L982.782 641.84L1036.82 696.004L1026.22 706.62L972.191 652.457Z" fill="#53E79C"></path><path d="M1132.89 578.466L1143.48 589.082L1026.22 706.62L1015.63 696.004L1132.89 578.466Z" fill="#53E79C"></path><path d="M321.493 28L313.291 44.6195L294.951 47.2838L308.222 60.2195L305.09 78.4851L321.493 69.8614L337.896 78.4851L334.763 60.2195L348.034 47.2838L329.695 44.6195L321.493 28Z" fill="#0B1B2B"></path><path d="M334.764 60.2195L348.034 47.2837" stroke="white" stroke-width="1.5"></path><path d="M321.493 28L313.291 44.6195L294.951 47.2838L308.222 60.2195L305.09 78.4851L321.493 69.8614L337.896 78.4851" stroke="white" stroke-width="1.5"></path><path d="M248.255 28L240.054 44.6195L221.713 47.2838L234.984 60.2195L231.851 78.4851L248.255 69.8614L264.659 78.4851L261.526 60.2195L274.797 47.2838L256.456 44.6195L248.255 28Z" fill="#53E79C"></path><path d="M261.525 60.2195L274.796 47.2837" stroke="white" stroke-width="1.5"></path><path d="M248.255 28L240.054 44.6195L221.713 47.2838L234.984 60.2195L231.851 78.4851L248.255 69.8614L264.659 78.4851" stroke="white" stroke-width="1.5"></path><path d="M175.013 28L166.812 44.6195L148.473 47.2838L161.744 60.2195L158.61 78.4851L175.013 69.8614L191.417 78.4851L188.284 60.2195L201.556 47.2838L183.216 44.6195L175.013 28Z" fill="#53E79C"></path><path d="M188.287 60.2195L201.558 47.2837" stroke="white" stroke-width="1.5"></path><path d="M175.013 28L166.812 44.6195L148.473 47.2838L161.744 60.2195L158.61 78.4851L175.013 69.8614L191.417 78.4851" stroke="white" stroke-width="1.5"></path><path d="M101.78 28L93.5778 44.6195L75.2383 47.2838L88.5094 60.2195L85.3767 78.4851L101.78 69.8614L118.184 78.4851L115.052 60.2195L128.321 47.2838L109.982 44.6195L101.78 28Z" fill="#53E79C"></path><path d="M115.049 60.2195L128.32 47.2837" stroke="white" stroke-width="1.5"></path><path d="M101.78 28L93.5778 44.6195L75.2383 47.2838L88.5094 60.2195L85.3767 78.4851L101.78 69.8614L118.184 78.4851" stroke="white" stroke-width="1.5"></path><path d="M28.5407 28L20.3396 44.6195L2 47.2838L15.2696 60.2195L12.1369 78.4851L28.5407 69.8614L44.9445 78.4851L41.8118 60.2195L55.0829 47.2838L36.7433 44.6195L28.5407 28Z" fill="#53E79C"></path><path d="M41.8145 60.2195L55.0853 47.2837" stroke="white" stroke-width="1.5"></path><path d="M28.5407 28L20.3396 44.6195L2 47.2838L15.2696 60.2195L12.1369 78.4851L28.5407 69.8614L44.9445 78.4851" stroke="white" stroke-width="1.5"></path></svg>