<svg xmlns="http://www.w3.org/2000/svg" viewBox="0 0 1000 1000" fill="none"><path d="M257.764 758.993L280.208 778.484L340.059 701.951L366.992 724.491L509.138 537.583L634.826 758.993L669.24 720.965L732.084 824.149H205.395L257.764 758.993Z" fill="#1B334B"></path><path d="M750.96 824.15H186.518" stroke="white" stroke-width="1.5"></path><path d="M330.266 434.997C330.266 434.997 104.769 721.255 507.169 710.995L523.129 724.675V628.624L385.252 598.141L401.443 421.45" fill="#3C67FF"></path><path d="M390.076 545.505C348.443 547.689 315.105 603.212 315.105 671.394C315.105 672.889 315.127 674.375 315.159 675.856C345.855 695.599 393.872 708.904 466.228 710.979C468.851 697.948 470.16 684.687 470.138 671.394C470.225 652.33 467.476 633.359 461.98 615.104L385.252 598.141L390.076 545.505Z" fill="#2850DE"></path><path d="M350.545 439.982C350.545 439.982 335.203 690.391 378.535 808.951L369.484 822.25H446.555C446.555 822.25 454.975 503.743 454.975 434.997L350.545 439.982Z" fill="#3C67FF"></path><path d="M409.103 246.237V278.78L368.789 288.688V233.77L409.103 223.861V246.237Z" fill="#1B334B"></path><path d="M386.33 257.496C386.925 257.496 387.408 257.014 387.408 256.418C387.408 255.823 386.925 255.34 386.33 255.34C385.735 255.34 385.252 255.823 385.252 256.418C385.252 257.014 385.735 257.496 386.33 257.496Z" fill="white"></path><path d="M402.887 257.496C403.482 257.496 403.964 257.014 403.964 256.418C403.964 255.823 403.482 255.34 402.887 255.34C402.291 255.34 401.809 255.823 401.809 256.418C401.809 257.014 402.291 257.496 402.887 257.496Z" fill="white"></path><path d="M398.029 262.849V246.237H406.351" stroke="white" stroke-width="1.5"></path><path d="M384.299 246.237H392.621" stroke="white" stroke-width="1.5"></path><path d="M371.443 254.748V260.517C368.331 260.517 365.809 257.994 365.809 254.883C365.809 254.71 365.816 254.539 365.832 254.37C366.147 250.871 371.443 251.235 371.443 254.748Z" fill="#EDEEEF"></path><path d="M371.443 260.517C368.331 260.517 365.809 257.994 365.809 254.882" stroke="white" stroke-width="1.5"></path><path d="M394.388 266.943C392.876 266.943 391.425 266.343 390.356 265.273C389.286 264.204 388.686 262.753 388.686 261.241" stroke="white" stroke-width="1.5" stroke-linecap="round" stroke-linejoin="round"></path><path d="M409.103 278.78L368.789 288.688" stroke="white" stroke-width="1.5"></path><path d="M398.028 262.862L394.389 263.756" stroke="white" stroke-width="1.5" stroke-linecap="round"></path><path d="M330.266 346.964V434.997L454.976 465.649V367.604C454.976 332.839 431.242 302.565 397.482 294.268H397.482C381.292 290.288 364.171 293.972 351.05 304.259C337.93 314.545 330.266 330.292 330.266 346.964L330.266 346.964Z" fill="#53E79C"></path><path d="M350.545 439.981C350.545 439.981 335.203 690.391 378.535 808.951" stroke="white" stroke-width="1.5"></path><path d="M367.445 252.128C367.445 252.128 362.026 234.176 370.576 226.766C379.126 219.356 416.936 221.256 416.936 221.256C416.936 221.256 419.596 247.476 380.646 241.206C380.646 241.206 380.08 248.472 373.616 249.756" stroke="white" stroke-width="1.5"></path><path d="M421.186 304.657C421.186 304.657 478.053 341.153 467.413 439.981C456.773 538.81 311.359 413.663 307.306 404.543C303.253 395.423 318.453 387.823 337.199 398.463C337.199 398.463 329.599 392.082 333.146 391.219C336.693 390.356 343.927 392.89 347.91 400.996L435.999 417.21" stroke="white" stroke-width="1.5"></path><path d="M332.798 393.017H244.985L206.479 303.993" stroke="white" stroke-width="1.5"></path><path d="M211.869 313.596L347.909 239.876" stroke="#3C67FF" stroke-width="1.5" stroke-linecap="round" stroke-linejoin="round"></path><path d="M347.037 307.738C347.037 307.738 315.867 337.156 306.646 393.016" stroke="white" stroke-width="1.5"></path><path d="M263.225 393.017C263.225 393.017 285.539 456.222 311.432 462.429" stroke="white" stroke-width="1.5"></path><path d="M298.186 393.016C298.186 393.016 287.18 377.69 279.889 374.143C272.599 370.596 250.559 378.703 253.346 382.503C256.132 386.303 261.199 384.276 261.199 384.276C261.199 384.276 259.932 388.076 262.212 389.09" stroke="white" stroke-width="1.5"></path><path d="M748.204 185.54C748.21 185.248 748.215 184.956 748.215 184.663C748.211 170.697 740.994 157.722 729.129 150.354C717.264 142.985 702.435 142.267 689.914 148.455C669.717 119.015 633.235 105.389 598.684 114.381C564.132 123.373 538.921 153.054 535.638 188.606C504.246 199.099 483.08 228.489 483.078 261.589V261.589C483.078 304.074 517.519 338.514 560.004 338.514H736.557C779.041 338.514 813.482 304.074 813.482 261.589V261.589C813.479 223.6 785.753 191.299 748.204 185.54Z" fill="white"></path><path d="M689.913 148.455C674.119 125.404 647.968 111.632 620.025 111.649" stroke="white" stroke-width="1.5"></path><path d="M748.214 184.664C748.214 173.951 743.959 163.678 736.384 156.103C728.81 148.529 718.536 144.273 707.824 144.273" stroke="white" stroke-width="1.5"></path><path d="M560.004 338.514H736.557C779.042 338.514 813.482 304.074 813.482 261.589" stroke="white" stroke-width="1.5"></path><rect x="689.162" y="426.868" width="81.7647" height="81.7647" transform="rotate(180 689.162 426.868)" fill="#53E79C"></rect><path d="M711.579 351.267L648.279 287.966L584.979 351.267H711.579Z" fill="#53E79C"></path><rect x="689.162" y="587.646" width="81.7647" height="81.7647" transform="rotate(180 689.162 587.646)" fill="#3C67FF"></rect><path d="M711.579 512.045L648.279 448.745L584.979 512.045H711.579Z" fill="#3C67FF"></path><path d="M689.686 748.114L607.923 748.732L607.305 666.969L689.067 666.351L689.686 748.114Z" fill="white"></path><path d="M711.531 672.345L647.754 609.524L584.934 673.302L711.531 672.345Z" fill="white"></path></svg>